<mxfile host="app.diagrams.net" modified="2024-03-23T14:49:04.781Z" agent="Mozilla/5.0 (Windows NT 10.0; Win64; x64; rv:124.0) Gecko/20100101 Firefox/124.0" etag="Cvehs24DZNd51CQmhjdh" version="24.0.8" type="device">
  <diagram id="C5RBs43oDa-KdzZeNtuy" name="Page-1">
    <mxGraphModel dx="2056" dy="1906" grid="1" gridSize="10" guides="1" tooltips="1" connect="1" arrows="1" fold="1" page="1" pageScale="1" pageWidth="827" pageHeight="1169" math="0" shadow="0">
      <root>
        <mxCell id="WIyWlLk6GJQsqaUBKTNV-0" />
        <mxCell id="WIyWlLk6GJQsqaUBKTNV-1" parent="WIyWlLk6GJQsqaUBKTNV-0" />
        <mxCell id="K2OaGvKO660Pv3aVyZiL-27" style="edgeStyle=orthogonalEdgeStyle;rounded=0;orthogonalLoop=1;jettySize=auto;html=1;exitX=1;exitY=0.5;exitDx=0;exitDy=0;startArrow=ERmandOne;startFill=0;endArrow=ERzeroToMany;endFill=0;" parent="WIyWlLk6GJQsqaUBKTNV-1" source="K2OaGvKO660Pv3aVyZiL-99" edge="1">
          <mxGeometry relative="1" as="geometry">
            <mxPoint x="170" y="349" as="sourcePoint" />
            <mxPoint x="380" y="180" as="targetPoint" />
            <Array as="points">
              <mxPoint x="250" y="500" />
              <mxPoint x="250" y="250" />
              <mxPoint x="350" y="250" />
              <mxPoint x="350" y="180" />
            </Array>
          </mxGeometry>
        </mxCell>
        <mxCell id="K2OaGvKO660Pv3aVyZiL-28" style="edgeStyle=orthogonalEdgeStyle;rounded=0;orthogonalLoop=1;jettySize=auto;html=1;exitX=1;exitY=0.5;exitDx=0;exitDy=0;startArrow=ERmandOne;startFill=0;endArrow=ERzeroToMany;endFill=0;" parent="WIyWlLk6GJQsqaUBKTNV-1" source="K2OaGvKO660Pv3aVyZiL-110" edge="1">
          <mxGeometry relative="1" as="geometry">
            <mxPoint x="100" y="228.99999999999955" as="sourcePoint" />
            <mxPoint x="380" y="140" as="targetPoint" />
            <Array as="points">
              <mxPoint x="225" y="157" />
              <mxPoint x="225" y="140" />
            </Array>
          </mxGeometry>
        </mxCell>
        <mxCell id="K2OaGvKO660Pv3aVyZiL-32" style="edgeStyle=orthogonalEdgeStyle;rounded=0;orthogonalLoop=1;jettySize=auto;html=1;startArrow=ERmandOne;startFill=0;endArrow=ERoneToMany;endFill=0;entryX=0;entryY=0.5;entryDx=0;entryDy=0;" parent="WIyWlLk6GJQsqaUBKTNV-1" target="K2OaGvKO660Pv3aVyZiL-79" edge="1">
          <mxGeometry relative="1" as="geometry">
            <mxPoint x="70" y="310" as="sourcePoint" />
            <mxPoint x="460" y="320" as="targetPoint" />
            <Array as="points">
              <mxPoint x="160" y="310" />
              <mxPoint x="160" y="385" />
            </Array>
          </mxGeometry>
        </mxCell>
        <mxCell id="K2OaGvKO660Pv3aVyZiL-33" style="edgeStyle=orthogonalEdgeStyle;rounded=0;orthogonalLoop=1;jettySize=auto;html=1;entryX=0;entryY=0.5;entryDx=0;entryDy=0;startArrow=ERmandOne;startFill=0;endArrow=ERone;endFill=0;" parent="WIyWlLk6GJQsqaUBKTNV-1" target="K2OaGvKO660Pv3aVyZiL-89" edge="1">
          <mxGeometry relative="1" as="geometry">
            <mxPoint x="70" y="270" as="sourcePoint" />
            <mxPoint x="260" y="449" as="targetPoint" />
            <Array as="points">
              <mxPoint x="310" y="270" />
              <mxPoint x="310" y="575" />
            </Array>
          </mxGeometry>
        </mxCell>
        <mxCell id="K2OaGvKO660Pv3aVyZiL-78" value="Состояния_Динозавров" style="shape=table;startSize=30;container=1;collapsible=0;childLayout=tableLayout;fixedRows=1;rowLines=0;fontStyle=0;strokeColor=default;fontSize=16;" parent="WIyWlLk6GJQsqaUBKTNV-1" vertex="1">
          <mxGeometry x="440" y="330" width="220" height="130" as="geometry" />
        </mxCell>
        <mxCell id="K2OaGvKO660Pv3aVyZiL-79" value="" style="shape=tableRow;horizontal=0;startSize=0;swimlaneHead=0;swimlaneBody=0;top=0;left=0;bottom=0;right=0;collapsible=0;dropTarget=0;fillColor=none;points=[[0,0.5],[1,0.5]];portConstraint=eastwest;strokeColor=inherit;fontSize=16;" parent="K2OaGvKO660Pv3aVyZiL-78" vertex="1">
          <mxGeometry y="30" width="220" height="50" as="geometry" />
        </mxCell>
        <mxCell id="K2OaGvKO660Pv3aVyZiL-80" value="РК" style="shape=partialRectangle;html=1;whiteSpace=wrap;connectable=0;fillColor=none;top=0;left=0;bottom=0;right=0;overflow=hidden;pointerEvents=1;strokeColor=inherit;fontSize=16;" parent="K2OaGvKO660Pv3aVyZiL-79" vertex="1">
          <mxGeometry width="49" height="50" as="geometry">
            <mxRectangle width="49" height="50" as="alternateBounds" />
          </mxGeometry>
        </mxCell>
        <mxCell id="K2OaGvKO660Pv3aVyZiL-81" value="&lt;pre style=&quot;font-family: &amp;quot;JetBrains Mono&amp;quot;, monospace; font-size: 9.8pt;&quot;&gt;ID SERIAL PRIMARY KEY&lt;/pre&gt;" style="shape=partialRectangle;html=1;whiteSpace=wrap;connectable=0;fillColor=none;top=0;left=0;bottom=0;right=0;align=left;spacingLeft=6;overflow=hidden;strokeColor=inherit;fontSize=16;" parent="K2OaGvKO660Pv3aVyZiL-79" vertex="1">
          <mxGeometry x="49" width="171" height="50" as="geometry">
            <mxRectangle width="171" height="50" as="alternateBounds" />
          </mxGeometry>
        </mxCell>
        <mxCell id="K2OaGvKO660Pv3aVyZiL-82" value="" style="shape=tableRow;horizontal=0;startSize=0;swimlaneHead=0;swimlaneBody=0;top=0;left=0;bottom=0;right=0;collapsible=0;dropTarget=0;fillColor=none;points=[[0,0.5],[1,0.5]];portConstraint=eastwest;strokeColor=inherit;fontSize=16;" parent="K2OaGvKO660Pv3aVyZiL-78" vertex="1">
          <mxGeometry y="80" width="220" height="30" as="geometry" />
        </mxCell>
        <mxCell id="K2OaGvKO660Pv3aVyZiL-83" value="" style="shape=partialRectangle;html=1;whiteSpace=wrap;connectable=0;fillColor=none;top=0;left=0;bottom=0;right=0;overflow=hidden;strokeColor=inherit;fontSize=16;" parent="K2OaGvKO660Pv3aVyZiL-82" vertex="1">
          <mxGeometry width="49" height="30" as="geometry">
            <mxRectangle width="49" height="30" as="alternateBounds" />
          </mxGeometry>
        </mxCell>
        <mxCell id="K2OaGvKO660Pv3aVyZiL-84" value="&lt;pre style=&quot;color: rgb(169, 183, 198); font-family: &amp;quot;JetBrains Mono&amp;quot;, monospace; font-size: 9.8pt;&quot;&gt;&lt;font color=&quot;#000000&quot;&gt;Состояние VARCHAR(255)&lt;/font&gt;&lt;/pre&gt;" style="shape=partialRectangle;html=1;whiteSpace=wrap;connectable=0;fillColor=none;top=0;left=0;bottom=0;right=0;align=left;spacingLeft=6;overflow=hidden;strokeColor=inherit;fontSize=16;" parent="K2OaGvKO660Pv3aVyZiL-82" vertex="1">
          <mxGeometry x="49" width="171" height="30" as="geometry">
            <mxRectangle width="171" height="30" as="alternateBounds" />
          </mxGeometry>
        </mxCell>
        <mxCell id="K2OaGvKO660Pv3aVyZiL-85" value="" style="shape=tableRow;horizontal=0;startSize=0;swimlaneHead=0;swimlaneBody=0;top=0;left=0;bottom=0;right=0;collapsible=0;dropTarget=0;fillColor=none;points=[[0,0.5],[1,0.5]];portConstraint=eastwest;strokeColor=inherit;fontSize=16;" parent="K2OaGvKO660Pv3aVyZiL-78" vertex="1">
          <mxGeometry y="110" width="220" height="20" as="geometry" />
        </mxCell>
        <mxCell id="K2OaGvKO660Pv3aVyZiL-86" value="" style="shape=partialRectangle;html=1;whiteSpace=wrap;connectable=0;fillColor=none;top=0;left=0;bottom=0;right=0;overflow=hidden;strokeColor=inherit;fontSize=16;" parent="K2OaGvKO660Pv3aVyZiL-85" vertex="1">
          <mxGeometry width="49" height="20" as="geometry">
            <mxRectangle width="49" height="20" as="alternateBounds" />
          </mxGeometry>
        </mxCell>
        <mxCell id="K2OaGvKO660Pv3aVyZiL-87" value="" style="shape=partialRectangle;html=1;whiteSpace=wrap;connectable=0;fillColor=none;top=0;left=0;bottom=0;right=0;align=left;spacingLeft=6;overflow=hidden;strokeColor=inherit;fontSize=16;" parent="K2OaGvKO660Pv3aVyZiL-85" vertex="1">
          <mxGeometry x="49" width="171" height="20" as="geometry">
            <mxRectangle width="171" height="20" as="alternateBounds" />
          </mxGeometry>
        </mxCell>
        <mxCell id="K2OaGvKO660Pv3aVyZiL-88" value="Голоса_Динозавров" style="shape=table;startSize=30;container=1;collapsible=0;childLayout=tableLayout;fixedRows=1;rowLines=0;fontStyle=0;strokeColor=default;fontSize=16;" parent="WIyWlLk6GJQsqaUBKTNV-1" vertex="1">
          <mxGeometry x="360" y="520" width="220" height="130" as="geometry" />
        </mxCell>
        <mxCell id="K2OaGvKO660Pv3aVyZiL-89" value="" style="shape=tableRow;horizontal=0;startSize=0;swimlaneHead=0;swimlaneBody=0;top=0;left=0;bottom=0;right=0;collapsible=0;dropTarget=0;fillColor=none;points=[[0,0.5],[1,0.5]];portConstraint=eastwest;strokeColor=inherit;fontSize=16;" parent="K2OaGvKO660Pv3aVyZiL-88" vertex="1">
          <mxGeometry y="30" width="220" height="50" as="geometry" />
        </mxCell>
        <mxCell id="K2OaGvKO660Pv3aVyZiL-90" value="РК" style="shape=partialRectangle;html=1;whiteSpace=wrap;connectable=0;fillColor=none;top=0;left=0;bottom=0;right=0;overflow=hidden;pointerEvents=1;strokeColor=inherit;fontSize=16;" parent="K2OaGvKO660Pv3aVyZiL-89" vertex="1">
          <mxGeometry width="49" height="50" as="geometry">
            <mxRectangle width="49" height="50" as="alternateBounds" />
          </mxGeometry>
        </mxCell>
        <mxCell id="K2OaGvKO660Pv3aVyZiL-91" value="&lt;pre style=&quot;font-family: &amp;quot;JetBrains Mono&amp;quot;, monospace; font-size: 9.8pt;&quot;&gt;ID SERIAL PRIMARY KEY&lt;/pre&gt;" style="shape=partialRectangle;html=1;whiteSpace=wrap;connectable=0;fillColor=none;top=0;left=0;bottom=0;right=0;align=left;spacingLeft=6;overflow=hidden;strokeColor=inherit;fontSize=16;" parent="K2OaGvKO660Pv3aVyZiL-89" vertex="1">
          <mxGeometry x="49" width="171" height="50" as="geometry">
            <mxRectangle width="171" height="50" as="alternateBounds" />
          </mxGeometry>
        </mxCell>
        <mxCell id="K2OaGvKO660Pv3aVyZiL-92" value="" style="shape=tableRow;horizontal=0;startSize=0;swimlaneHead=0;swimlaneBody=0;top=0;left=0;bottom=0;right=0;collapsible=0;dropTarget=0;fillColor=none;points=[[0,0.5],[1,0.5]];portConstraint=eastwest;strokeColor=inherit;fontSize=16;" parent="K2OaGvKO660Pv3aVyZiL-88" vertex="1">
          <mxGeometry y="80" width="220" height="30" as="geometry" />
        </mxCell>
        <mxCell id="K2OaGvKO660Pv3aVyZiL-93" value="" style="shape=partialRectangle;html=1;whiteSpace=wrap;connectable=0;fillColor=none;top=0;left=0;bottom=0;right=0;overflow=hidden;strokeColor=inherit;fontSize=16;" parent="K2OaGvKO660Pv3aVyZiL-92" vertex="1">
          <mxGeometry width="49" height="30" as="geometry">
            <mxRectangle width="49" height="30" as="alternateBounds" />
          </mxGeometry>
        </mxCell>
        <mxCell id="K2OaGvKO660Pv3aVyZiL-94" value="&lt;pre style=&quot;color: rgb(169, 183, 198); font-family: &amp;quot;JetBrains Mono&amp;quot;, monospace; font-size: 9.8pt;&quot;&gt;&lt;font color=&quot;#000000&quot;&gt;Звук VARCHAR(255)&lt;/font&gt;&lt;/pre&gt;" style="shape=partialRectangle;html=1;whiteSpace=wrap;connectable=0;fillColor=none;top=0;left=0;bottom=0;right=0;align=left;spacingLeft=6;overflow=hidden;strokeColor=inherit;fontSize=16;" parent="K2OaGvKO660Pv3aVyZiL-92" vertex="1">
          <mxGeometry x="49" width="171" height="30" as="geometry">
            <mxRectangle width="171" height="30" as="alternateBounds" />
          </mxGeometry>
        </mxCell>
        <mxCell id="K2OaGvKO660Pv3aVyZiL-95" value="" style="shape=tableRow;horizontal=0;startSize=0;swimlaneHead=0;swimlaneBody=0;top=0;left=0;bottom=0;right=0;collapsible=0;dropTarget=0;fillColor=none;points=[[0,0.5],[1,0.5]];portConstraint=eastwest;strokeColor=inherit;fontSize=16;" parent="K2OaGvKO660Pv3aVyZiL-88" vertex="1">
          <mxGeometry y="110" width="220" height="20" as="geometry" />
        </mxCell>
        <mxCell id="K2OaGvKO660Pv3aVyZiL-96" value="" style="shape=partialRectangle;html=1;whiteSpace=wrap;connectable=0;fillColor=none;top=0;left=0;bottom=0;right=0;overflow=hidden;strokeColor=inherit;fontSize=16;" parent="K2OaGvKO660Pv3aVyZiL-95" vertex="1">
          <mxGeometry width="49" height="20" as="geometry">
            <mxRectangle width="49" height="20" as="alternateBounds" />
          </mxGeometry>
        </mxCell>
        <mxCell id="K2OaGvKO660Pv3aVyZiL-97" value="" style="shape=partialRectangle;html=1;whiteSpace=wrap;connectable=0;fillColor=none;top=0;left=0;bottom=0;right=0;align=left;spacingLeft=6;overflow=hidden;strokeColor=inherit;fontSize=16;" parent="K2OaGvKO660Pv3aVyZiL-95" vertex="1">
          <mxGeometry x="49" width="171" height="20" as="geometry">
            <mxRectangle width="171" height="20" as="alternateBounds" />
          </mxGeometry>
        </mxCell>
        <mxCell id="K2OaGvKO660Pv3aVyZiL-98" value="Люди" style="shape=table;startSize=30;container=1;collapsible=0;childLayout=tableLayout;fixedRows=1;rowLines=0;fontStyle=0;strokeColor=default;fontSize=16;" parent="WIyWlLk6GJQsqaUBKTNV-1" vertex="1">
          <mxGeometry x="-170" y="450" width="220" height="150" as="geometry" />
        </mxCell>
        <mxCell id="K2OaGvKO660Pv3aVyZiL-99" value="" style="shape=tableRow;horizontal=0;startSize=0;swimlaneHead=0;swimlaneBody=0;top=0;left=0;bottom=0;right=0;collapsible=0;dropTarget=0;fillColor=none;points=[[0,0.5],[1,0.5]];portConstraint=eastwest;strokeColor=inherit;fontSize=16;" parent="K2OaGvKO660Pv3aVyZiL-98" vertex="1">
          <mxGeometry y="30" width="220" height="40" as="geometry" />
        </mxCell>
        <mxCell id="K2OaGvKO660Pv3aVyZiL-100" value="РК" style="shape=partialRectangle;html=1;whiteSpace=wrap;connectable=0;fillColor=none;top=0;left=0;bottom=0;right=0;overflow=hidden;pointerEvents=1;strokeColor=inherit;fontSize=16;" parent="K2OaGvKO660Pv3aVyZiL-99" vertex="1">
          <mxGeometry width="49" height="40" as="geometry">
            <mxRectangle width="49" height="40" as="alternateBounds" />
          </mxGeometry>
        </mxCell>
        <mxCell id="K2OaGvKO660Pv3aVyZiL-101" value="&lt;pre style=&quot;color: rgb(169, 183, 198); font-family: &amp;quot;JetBrains Mono&amp;quot;, monospace; font-size: 9.8pt;&quot;&gt;&lt;font color=&quot;#000000&quot;&gt;ID SERIAL PRIMARY KEY,&lt;/font&gt;&lt;/pre&gt;" style="shape=partialRectangle;html=1;whiteSpace=wrap;connectable=0;fillColor=none;top=0;left=0;bottom=0;right=0;align=left;spacingLeft=6;overflow=hidden;strokeColor=inherit;fontSize=16;" parent="K2OaGvKO660Pv3aVyZiL-99" vertex="1">
          <mxGeometry x="49" width="171" height="40" as="geometry">
            <mxRectangle width="171" height="40" as="alternateBounds" />
          </mxGeometry>
        </mxCell>
        <mxCell id="K2OaGvKO660Pv3aVyZiL-102" value="" style="shape=tableRow;horizontal=0;startSize=0;swimlaneHead=0;swimlaneBody=0;top=0;left=0;bottom=0;right=0;collapsible=0;dropTarget=0;fillColor=none;points=[[0,0.5],[1,0.5]];portConstraint=eastwest;strokeColor=inherit;fontSize=16;" parent="K2OaGvKO660Pv3aVyZiL-98" vertex="1">
          <mxGeometry y="70" width="220" height="30" as="geometry" />
        </mxCell>
        <mxCell id="K2OaGvKO660Pv3aVyZiL-103" value="" style="shape=partialRectangle;html=1;whiteSpace=wrap;connectable=0;fillColor=none;top=0;left=0;bottom=0;right=0;overflow=hidden;strokeColor=inherit;fontSize=16;" parent="K2OaGvKO660Pv3aVyZiL-102" vertex="1">
          <mxGeometry width="49" height="30" as="geometry">
            <mxRectangle width="49" height="30" as="alternateBounds" />
          </mxGeometry>
        </mxCell>
        <mxCell id="K2OaGvKO660Pv3aVyZiL-104" value="&lt;pre style=&quot;color: rgb(169, 183, 198); font-family: &amp;quot;JetBrains Mono&amp;quot;, monospace; font-size: 9.8pt;&quot;&gt;&lt;font color=&quot;#000000&quot;&gt;Имя VARCHAR(255)&lt;/font&gt;&lt;/pre&gt;" style="shape=partialRectangle;html=1;whiteSpace=wrap;connectable=0;fillColor=none;top=0;left=0;bottom=0;right=0;align=left;spacingLeft=6;overflow=hidden;strokeColor=inherit;fontSize=16;" parent="K2OaGvKO660Pv3aVyZiL-102" vertex="1">
          <mxGeometry x="49" width="171" height="30" as="geometry">
            <mxRectangle width="171" height="30" as="alternateBounds" />
          </mxGeometry>
        </mxCell>
        <mxCell id="K2OaGvKO660Pv3aVyZiL-105" value="" style="shape=tableRow;horizontal=0;startSize=0;swimlaneHead=0;swimlaneBody=0;top=0;left=0;bottom=0;right=0;collapsible=0;dropTarget=0;fillColor=none;points=[[0,0.5],[1,0.5]];portConstraint=eastwest;strokeColor=inherit;fontSize=16;" parent="K2OaGvKO660Pv3aVyZiL-98" vertex="1">
          <mxGeometry y="100" width="220" height="50" as="geometry" />
        </mxCell>
        <mxCell id="K2OaGvKO660Pv3aVyZiL-106" value="" style="shape=partialRectangle;html=1;whiteSpace=wrap;connectable=0;fillColor=none;top=0;left=0;bottom=0;right=0;overflow=hidden;strokeColor=inherit;fontSize=16;" parent="K2OaGvKO660Pv3aVyZiL-105" vertex="1">
          <mxGeometry width="49" height="50" as="geometry">
            <mxRectangle width="49" height="50" as="alternateBounds" />
          </mxGeometry>
        </mxCell>
        <mxCell id="K2OaGvKO660Pv3aVyZiL-107" value="&lt;pre style=&quot;color: rgb(169, 183, 198); font-family: &amp;quot;JetBrains Mono&amp;quot;, monospace; font-size: 9.8pt;&quot;&gt;&lt;font color=&quot;#000000&quot;&gt;Возраст INT&lt;/font&gt;&lt;/pre&gt;" style="shape=partialRectangle;html=1;whiteSpace=wrap;connectable=0;fillColor=none;top=0;left=0;bottom=0;right=0;align=left;spacingLeft=6;overflow=hidden;strokeColor=inherit;fontSize=16;" parent="K2OaGvKO660Pv3aVyZiL-105" vertex="1">
          <mxGeometry x="49" width="171" height="50" as="geometry">
            <mxRectangle width="171" height="50" as="alternateBounds" />
          </mxGeometry>
        </mxCell>
        <mxCell id="K2OaGvKO660Pv3aVyZiL-121" value="" style="group" parent="WIyWlLk6GJQsqaUBKTNV-1" vertex="1" connectable="0">
          <mxGeometry x="-151" y="106.66999999999999" width="220" height="240" as="geometry" />
        </mxCell>
        <mxCell id="K2OaGvKO660Pv3aVyZiL-109" value="Динозавры" style="shape=table;startSize=33;container=1;collapsible=0;childLayout=tableLayout;fixedRows=1;rowLines=0;fontStyle=0;strokeColor=default;fontSize=16;" parent="K2OaGvKO660Pv3aVyZiL-121" vertex="1">
          <mxGeometry width="220" height="240" as="geometry" />
        </mxCell>
        <mxCell id="K2OaGvKO660Pv3aVyZiL-110" value="" style="shape=tableRow;horizontal=0;startSize=0;swimlaneHead=0;swimlaneBody=0;top=0;left=0;bottom=0;right=0;collapsible=0;dropTarget=0;fillColor=none;points=[[0,0.5],[1,0.5]];portConstraint=eastwest;strokeColor=inherit;fontSize=16;" parent="K2OaGvKO660Pv3aVyZiL-109" vertex="1">
          <mxGeometry y="33" width="220" height="40" as="geometry" />
        </mxCell>
        <mxCell id="K2OaGvKO660Pv3aVyZiL-111" value="РК" style="shape=partialRectangle;html=1;whiteSpace=wrap;connectable=0;fillColor=none;top=0;left=0;bottom=0;right=0;overflow=hidden;pointerEvents=1;strokeColor=inherit;fontSize=16;" parent="K2OaGvKO660Pv3aVyZiL-110" vertex="1">
          <mxGeometry width="49" height="40" as="geometry">
            <mxRectangle width="49" height="40" as="alternateBounds" />
          </mxGeometry>
        </mxCell>
        <mxCell id="K2OaGvKO660Pv3aVyZiL-112" value="&lt;pre style=&quot;font-family: &amp;quot;JetBrains Mono&amp;quot;, monospace; font-size: 9.8pt;&quot;&gt;ID SERIAL PRIMARY KEY&lt;/pre&gt;" style="shape=partialRectangle;html=1;whiteSpace=wrap;connectable=0;fillColor=none;top=0;left=0;bottom=0;right=0;align=left;spacingLeft=6;overflow=hidden;strokeColor=inherit;fontSize=16;" parent="K2OaGvKO660Pv3aVyZiL-110" vertex="1">
          <mxGeometry x="49" width="171" height="40" as="geometry">
            <mxRectangle width="171" height="40" as="alternateBounds" />
          </mxGeometry>
        </mxCell>
        <mxCell id="K2OaGvKO660Pv3aVyZiL-113" value="" style="shape=tableRow;horizontal=0;startSize=0;swimlaneHead=0;swimlaneBody=0;top=0;left=0;bottom=0;right=0;collapsible=0;dropTarget=0;fillColor=none;points=[[0,0.5],[1,0.5]];portConstraint=eastwest;strokeColor=inherit;fontSize=16;" parent="K2OaGvKO660Pv3aVyZiL-109" vertex="1">
          <mxGeometry y="73" width="220" height="30" as="geometry" />
        </mxCell>
        <mxCell id="K2OaGvKO660Pv3aVyZiL-114" value="" style="shape=partialRectangle;html=1;whiteSpace=wrap;connectable=0;fillColor=none;top=0;left=0;bottom=0;right=0;overflow=hidden;strokeColor=inherit;fontSize=16;" parent="K2OaGvKO660Pv3aVyZiL-113" vertex="1">
          <mxGeometry width="49" height="30" as="geometry">
            <mxRectangle width="49" height="30" as="alternateBounds" />
          </mxGeometry>
        </mxCell>
        <mxCell id="K2OaGvKO660Pv3aVyZiL-115" value="&lt;pre style=&quot;color: rgb(169, 183, 198); font-family: &amp;quot;JetBrains Mono&amp;quot;, monospace; font-size: 9.8pt;&quot;&gt;&lt;font color=&quot;#000000&quot;&gt;Вид VARCHAR(255)&lt;/font&gt;&lt;/pre&gt;" style="shape=partialRectangle;html=1;whiteSpace=wrap;connectable=0;fillColor=none;top=0;left=0;bottom=0;right=0;align=left;spacingLeft=6;overflow=hidden;strokeColor=inherit;fontSize=16;" parent="K2OaGvKO660Pv3aVyZiL-113" vertex="1">
          <mxGeometry x="49" width="171" height="30" as="geometry">
            <mxRectangle width="171" height="30" as="alternateBounds" />
          </mxGeometry>
        </mxCell>
        <mxCell id="K2OaGvKO660Pv3aVyZiL-116" value="" style="shape=tableRow;horizontal=0;startSize=0;swimlaneHead=0;swimlaneBody=0;top=0;left=0;bottom=0;right=0;collapsible=0;dropTarget=0;fillColor=none;points=[[0,0.5],[1,0.5]];portConstraint=eastwest;strokeColor=inherit;fontSize=16;" parent="K2OaGvKO660Pv3aVyZiL-109" vertex="1">
          <mxGeometry y="103" width="220" height="50" as="geometry" />
        </mxCell>
        <mxCell id="K2OaGvKO660Pv3aVyZiL-117" value="" style="shape=partialRectangle;html=1;whiteSpace=wrap;connectable=0;fillColor=none;top=0;left=0;bottom=0;right=0;overflow=hidden;strokeColor=inherit;fontSize=16;" parent="K2OaGvKO660Pv3aVyZiL-116" vertex="1">
          <mxGeometry width="49" height="50" as="geometry">
            <mxRectangle width="49" height="50" as="alternateBounds" />
          </mxGeometry>
        </mxCell>
        <mxCell id="K2OaGvKO660Pv3aVyZiL-118" value="&lt;pre style=&quot;color: rgb(169, 183, 198); font-family: &amp;quot;JetBrains Mono&amp;quot;, monospace; font-size: 9.8pt;&quot;&gt;&lt;font color=&quot;#000000&quot;&gt;Размер INT&lt;/font&gt;&lt;/pre&gt;" style="shape=partialRectangle;html=1;whiteSpace=wrap;connectable=0;fillColor=none;top=0;left=0;bottom=0;right=0;align=left;spacingLeft=6;overflow=hidden;strokeColor=inherit;fontSize=16;" parent="K2OaGvKO660Pv3aVyZiL-116" vertex="1">
          <mxGeometry x="49" width="171" height="50" as="geometry">
            <mxRectangle width="171" height="50" as="alternateBounds" />
          </mxGeometry>
        </mxCell>
        <mxCell id="K2OaGvKO660Pv3aVyZiL-119" value="" style="line;strokeWidth=2;direction=south;html=1;" parent="K2OaGvKO660Pv3aVyZiL-121" vertex="1">
          <mxGeometry x="45" y="36" width="10" height="204" as="geometry" />
        </mxCell>
        <mxCell id="K2OaGvKO660Pv3aVyZiL-120" value="&lt;pre style=&quot;color: rgb(169, 183, 198); font-family: &amp;quot;JetBrains Mono&amp;quot;, monospace; font-size: 9.8pt;&quot;&gt;&lt;font color=&quot;#000000&quot;&gt;Голос_ID INT&lt;/font&gt;&lt;/pre&gt;" style="shape=partialRectangle;html=1;whiteSpace=wrap;connectable=0;fillColor=none;top=0;left=0;bottom=0;right=0;align=left;spacingLeft=6;overflow=hidden;strokeColor=inherit;fontSize=16;" parent="K2OaGvKO660Pv3aVyZiL-121" vertex="1">
          <mxGeometry x="49" y="140.00076923076924" width="171" height="46.15384615384615" as="geometry">
            <mxRectangle width="171" height="50" as="alternateBounds" />
          </mxGeometry>
        </mxCell>
        <mxCell id="K2OaGvKO660Pv3aVyZiL-122" value="&lt;pre style=&quot;color: rgb(169, 183, 198); font-family: &amp;quot;JetBrains Mono&amp;quot;, monospace; font-size: 9.8pt;&quot;&gt;&lt;font color=&quot;#000000&quot;&gt;Состояние_ID INT&lt;/font&gt;&lt;/pre&gt;" style="shape=partialRectangle;html=1;whiteSpace=wrap;connectable=0;fillColor=none;top=0;left=0;bottom=0;right=0;align=left;spacingLeft=6;overflow=hidden;strokeColor=inherit;fontSize=16;" parent="K2OaGvKO660Pv3aVyZiL-121" vertex="1">
          <mxGeometry x="49" y="180.00384615384615" width="171" height="46.15384615384615" as="geometry">
            <mxRectangle width="171" height="50" as="alternateBounds" />
          </mxGeometry>
        </mxCell>
        <mxCell id="K2OaGvKO660Pv3aVyZiL-140" value="FK1" style="text;html=1;align=center;verticalAlign=middle;resizable=0;points=[];autosize=1;strokeColor=none;fillColor=none;" parent="K2OaGvKO660Pv3aVyZiL-121" vertex="1">
          <mxGeometry y="150.00000000000003" width="50" height="30" as="geometry" />
        </mxCell>
        <mxCell id="K2OaGvKO660Pv3aVyZiL-141" value="FK2" style="text;html=1;align=center;verticalAlign=middle;resizable=0;points=[];autosize=1;strokeColor=none;fillColor=none;" parent="K2OaGvKO660Pv3aVyZiL-121" vertex="1">
          <mxGeometry y="188.08" width="50" height="30" as="geometry" />
        </mxCell>
        <mxCell id="K2OaGvKO660Pv3aVyZiL-123" value="" style="group" parent="WIyWlLk6GJQsqaUBKTNV-1" vertex="1" connectable="0">
          <mxGeometry x="380" y="-20.00000000000003" width="220" height="240" as="geometry" />
        </mxCell>
        <mxCell id="K2OaGvKO660Pv3aVyZiL-124" value="Динозавры" style="shape=table;startSize=30;container=1;collapsible=0;childLayout=tableLayout;fixedRows=1;rowLines=0;fontStyle=0;strokeColor=default;fontSize=16;" parent="K2OaGvKO660Pv3aVyZiL-123" vertex="1">
          <mxGeometry x="1" width="220" height="240" as="geometry" />
        </mxCell>
        <mxCell id="K2OaGvKO660Pv3aVyZiL-125" value="" style="shape=tableRow;horizontal=0;startSize=0;swimlaneHead=0;swimlaneBody=0;top=0;left=0;bottom=0;right=0;collapsible=0;dropTarget=0;fillColor=none;points=[[0,0.5],[1,0.5]];portConstraint=eastwest;strokeColor=inherit;fontSize=16;" parent="K2OaGvKO660Pv3aVyZiL-124" vertex="1">
          <mxGeometry y="30" width="220" height="40" as="geometry" />
        </mxCell>
        <mxCell id="K2OaGvKO660Pv3aVyZiL-126" value="РК" style="shape=partialRectangle;html=1;whiteSpace=wrap;connectable=0;fillColor=none;top=0;left=0;bottom=0;right=0;overflow=hidden;pointerEvents=1;strokeColor=inherit;fontSize=16;" parent="K2OaGvKO660Pv3aVyZiL-125" vertex="1">
          <mxGeometry width="49" height="40" as="geometry">
            <mxRectangle width="49" height="40" as="alternateBounds" />
          </mxGeometry>
        </mxCell>
        <mxCell id="K2OaGvKO660Pv3aVyZiL-127" value="&lt;pre style=&quot;color: rgb(169, 183, 198); font-family: &amp;quot;JetBrains Mono&amp;quot;, monospace; font-size: 9.8pt;&quot;&gt;&lt;font color=&quot;#000000&quot;&gt;ID SERIAL PRIMARY KEY,&lt;/font&gt;&lt;/pre&gt;" style="shape=partialRectangle;html=1;whiteSpace=wrap;connectable=0;fillColor=none;top=0;left=0;bottom=0;right=0;align=left;spacingLeft=6;overflow=hidden;strokeColor=inherit;fontSize=16;" parent="K2OaGvKO660Pv3aVyZiL-125" vertex="1">
          <mxGeometry x="49" width="171" height="40" as="geometry">
            <mxRectangle width="171" height="40" as="alternateBounds" />
          </mxGeometry>
        </mxCell>
        <mxCell id="K2OaGvKO660Pv3aVyZiL-128" value="" style="shape=tableRow;horizontal=0;startSize=0;swimlaneHead=0;swimlaneBody=0;top=0;left=0;bottom=0;right=0;collapsible=0;dropTarget=0;fillColor=none;points=[[0,0.5],[1,0.5]];portConstraint=eastwest;strokeColor=inherit;fontSize=16;" parent="K2OaGvKO660Pv3aVyZiL-124" vertex="1">
          <mxGeometry y="70" width="220" height="30" as="geometry" />
        </mxCell>
        <mxCell id="K2OaGvKO660Pv3aVyZiL-129" value="" style="shape=partialRectangle;html=1;whiteSpace=wrap;connectable=0;fillColor=none;top=0;left=0;bottom=0;right=0;overflow=hidden;strokeColor=inherit;fontSize=16;" parent="K2OaGvKO660Pv3aVyZiL-128" vertex="1">
          <mxGeometry width="49" height="30" as="geometry">
            <mxRectangle width="49" height="30" as="alternateBounds" />
          </mxGeometry>
        </mxCell>
        <mxCell id="K2OaGvKO660Pv3aVyZiL-130" value="&lt;pre style=&quot;color: rgb(169, 183, 198); font-family: &amp;quot;JetBrains Mono&amp;quot;, monospace; font-size: 9.8pt;&quot;&gt;&lt;font color=&quot;#000000&quot;&gt;Дата_и_время TEXT&lt;/font&gt;&lt;/pre&gt;" style="shape=partialRectangle;html=1;whiteSpace=wrap;connectable=0;fillColor=none;top=0;left=0;bottom=0;right=0;align=left;spacingLeft=6;overflow=hidden;strokeColor=inherit;fontSize=16;" parent="K2OaGvKO660Pv3aVyZiL-128" vertex="1">
          <mxGeometry x="49" width="171" height="30" as="geometry">
            <mxRectangle width="171" height="30" as="alternateBounds" />
          </mxGeometry>
        </mxCell>
        <mxCell id="K2OaGvKO660Pv3aVyZiL-131" value="" style="shape=tableRow;horizontal=0;startSize=0;swimlaneHead=0;swimlaneBody=0;top=0;left=0;bottom=0;right=0;collapsible=0;dropTarget=0;fillColor=none;points=[[0,0.5],[1,0.5]];portConstraint=eastwest;strokeColor=inherit;fontSize=16;" parent="K2OaGvKO660Pv3aVyZiL-124" vertex="1">
          <mxGeometry y="100" width="220" height="50" as="geometry" />
        </mxCell>
        <mxCell id="K2OaGvKO660Pv3aVyZiL-132" value="" style="shape=partialRectangle;html=1;whiteSpace=wrap;connectable=0;fillColor=none;top=0;left=0;bottom=0;right=0;overflow=hidden;strokeColor=inherit;fontSize=16;" parent="K2OaGvKO660Pv3aVyZiL-131" vertex="1">
          <mxGeometry width="49" height="50" as="geometry">
            <mxRectangle width="49" height="50" as="alternateBounds" />
          </mxGeometry>
        </mxCell>
        <mxCell id="K2OaGvKO660Pv3aVyZiL-133" value="&lt;pre style=&quot;color: rgb(169, 183, 198); font-family: &amp;quot;JetBrains Mono&amp;quot;, monospace; font-size: 9.8pt;&quot;&gt;&lt;font color=&quot;#000000&quot;&gt;Описание TEXT&lt;/font&gt;&lt;/pre&gt;" style="shape=partialRectangle;html=1;whiteSpace=wrap;connectable=0;fillColor=none;top=0;left=0;bottom=0;right=0;align=left;spacingLeft=6;overflow=hidden;strokeColor=inherit;fontSize=16;" parent="K2OaGvKO660Pv3aVyZiL-131" vertex="1">
          <mxGeometry x="49" width="171" height="50" as="geometry">
            <mxRectangle width="171" height="50" as="alternateBounds" />
          </mxGeometry>
        </mxCell>
        <mxCell id="K2OaGvKO660Pv3aVyZiL-134" value="" style="line;strokeWidth=2;direction=south;html=1;" parent="K2OaGvKO660Pv3aVyZiL-123" vertex="1">
          <mxGeometry x="45" y="36" width="10" height="204" as="geometry" />
        </mxCell>
        <mxCell id="K2OaGvKO660Pv3aVyZiL-135" value="&lt;pre style=&quot;color: rgb(169, 183, 198); font-family: &amp;quot;JetBrains Mono&amp;quot;, monospace; font-size: 9.8pt;&quot;&gt;&lt;font color=&quot;#000000&quot;&gt;Динозавр_ID INT&lt;/font&gt;&lt;/pre&gt;" style="shape=partialRectangle;html=1;whiteSpace=wrap;connectable=0;fillColor=none;top=0;left=0;bottom=0;right=0;align=left;spacingLeft=6;overflow=hidden;strokeColor=inherit;fontSize=16;" parent="K2OaGvKO660Pv3aVyZiL-123" vertex="1">
          <mxGeometry x="49" y="140.00076923076924" width="171" height="46.15384615384615" as="geometry">
            <mxRectangle width="171" height="50" as="alternateBounds" />
          </mxGeometry>
        </mxCell>
        <mxCell id="K2OaGvKO660Pv3aVyZiL-136" value="&lt;pre style=&quot;color: rgb(169, 183, 198); font-family: &amp;quot;JetBrains Mono&amp;quot;, monospace; font-size: 9.8pt;&quot;&gt;&lt;font color=&quot;#000000&quot;&gt;Человек_ID INT&lt;/font&gt;&lt;/pre&gt;" style="shape=partialRectangle;html=1;whiteSpace=wrap;connectable=0;fillColor=none;top=0;left=0;bottom=0;right=0;align=left;spacingLeft=6;overflow=hidden;strokeColor=inherit;fontSize=16;" parent="K2OaGvKO660Pv3aVyZiL-123" vertex="1">
          <mxGeometry x="49" y="180.00384615384615" width="171" height="46.15384615384615" as="geometry">
            <mxRectangle width="171" height="50" as="alternateBounds" />
          </mxGeometry>
        </mxCell>
        <mxCell id="K2OaGvKO660Pv3aVyZiL-139" value="FK2" style="text;html=1;align=center;verticalAlign=middle;resizable=0;points=[];autosize=1;strokeColor=none;fillColor=none;" parent="K2OaGvKO660Pv3aVyZiL-123" vertex="1">
          <mxGeometry x="1" y="188.08" width="50" height="30" as="geometry" />
        </mxCell>
        <mxCell id="K2OaGvKO660Pv3aVyZiL-137" value="FK1" style="text;html=1;align=center;verticalAlign=middle;resizable=0;points=[];autosize=1;strokeColor=none;fillColor=none;" parent="K2OaGvKO660Pv3aVyZiL-123" vertex="1">
          <mxGeometry x="1" y="148.08000000000004" width="50" height="30" as="geometry" />
        </mxCell>
      </root>
    </mxGraphModel>
  </diagram>
</mxfile>
